<svg width="764" height="179" viewBox="0 0 764 179" fill="none" xmlns="http://www.w3.org/2000/svg">
  <defs>
    <linearGradient id="seam" x1="0" y1="0" x2="0" y2="1024" gradientUnits="userSpaceOnUse">
      <stop offset="0" stop-color="#fde68a"/><stop offset="0.5" stop-color="#fbbf24"/><stop offset="1" stop-color="#f59e0b"/>
    </linearGradient>
    <linearGradient id="pL" x1="0" y1="120" x2="430" y2="1024" gradientUnits="userSpaceOnUse">
      <stop offset="0" stop-color="#283242"/><stop offset="1" stop-color="#141a25"/>
    </linearGradient>
    <linearGradient id="pR" x1="1024" y1="120" x2="620" y2="1024" gradientUnits="userSpaceOnUse">
      <stop offset="0" stop-color="#212a39"/><stop offset="1" stop-color="#10151f"/>
    </linearGradient>
    <filter id="glow" x="-60%" y="-60%" width="220%" height="220%">
      <feGaussianBlur stdDeviation="34" result="b"/><feMerge><feMergeNode in="b"/><feMergeNode in="SourceGraphic"/></feMerge>
    </filter>
    <clipPath id="tile"><rect x="0" y="0" width="1024" height="1024" rx="228" ry="228"/></clipPath>
  </defs>
  <g transform="translate(150,15) scale(0.1465)">
    <g clip-path="url(#tile)">
      <rect width="1024" height="1024" fill="#0b0e14"/>
      <g filter="url(#glow)"><path d="M566,-10 L470,330 L590,500 L452,720 L572,1034 L600,1034 L500,720 L636,500 L516,330 L612,-10 Z" fill="url(#seam)" opacity="0.9"/></g>
      <path d="M-10,-10 L548,-10 L452,330 L572,500 L434,720 L554,1034 L-10,1034 Z" fill="url(#pL)"/>
      <path d="M630,-10 L1034,-10 L1034,1034 L590,1034 L490,720 L654,500 L534,330 Z" fill="url(#pR)"/>
      <path d="M580,-10 L484,330 L604,500 L466,720 L586,1034" stroke="#fffbeb" stroke-width="9" stroke-linejoin="round" stroke-linecap="round" fill="none"/>
    </g>
  </g>
  <text x="350" y="123" font-family="Helvetica, Arial, sans-serif" font-size="104" font-weight="700" fill="#1a1d24" letter-spacing="1">Rift</text>
</svg>
